<svg version="1" xmlns="http://www.w3.org/2000/svg" width="721.333" height="721.333" viewBox="0 0 541.000000 541.000000"><path d="M234.8 4.2c-.7 2.5-1.2 10.3-1.3 18.5 0 7.9-.3 14.3-.7 14.3-.5 0-.8-.4-.8-.9 0-1.7-4-2.3-5.7-1-3.1 2.6.4 28.3 5 37.2 1.8 3.4 2.8 4.3 5.5 4.5 2.7.3 3.2.7 3.3 3 .1 3.6.6 8.7 1.4 13.6 1.7 11 1.5 14.9-1 19.2-3 5.1-11.3 12.7-18 16.5-2.8 1.6-6 3.7-7.1 4.7-2.7 2.6-24.4 12.9-37 17.7-3.3 1.2-9.9 4.1-14.6 6.3-4.8 2.2-10.6 4.7-13 5.5-12.5 4.3-22.8 10.5-25.9 15.6-1.1 1.9-1.9 5-1.9 7.9 0 2.6-.5 6.5-1 8.7-.5 2.2-1.1 5.1-1.4 6.5-.2 1.4-1.1 5.6-1.9 9.5-.9 3.8-1.8 9-2.2 11.5-.3 2.5-.8 5.3-1.1 6.3-.3.9-.7 12.9-.9 26.7-.2 13.7-.6 25.3-.8 25.7-.3.5-.8 3.5-1.1 6.8-.4 3.3-1.1 8.5-1.6 11.5s-1.2 7.5-1.5 10c-.3 2.5-.8 5.7-1 7.1-.6 3.4-1.2 8.1-2 15.4-.4 3.3-.8 7.1-1 8.5-.2 1.4-.6 5-1 8-1.2 11.2-1.9 15.8-3.7 25.5-.6 3.3-1.2 7-1.3 8.1-.2 1.2-2.6 10.4-5.3 20.5-5 18.5-6.7 25.5-7.7 31.9-.3 1.9-.8 4.9-1.1 6.6-.4 2-3.6 6.4-9.7 13-19.3 21-33.1 37.7-35.7 43.3-1.2 2.4-2.9 7.2-3.8 10.6-2 7.9-.9 15.7 3.6 25.8l3.1 6.7 192.2-.2 192.3-.3-.3-6.5c-.1-3.6-.5-10.3-.9-15-.6-9.3-.6-14.4 0-23.5.5-6.8-1.3-19.3-3.5-24.5-.8-1.9-1.8-6.2-2.1-9.5-.6-5.6-1.7-10.9-6.6-31-6.7-27.9-6.5-27.1-7.5-40.5-.6-9-1.1-15.8-2-25.5-.8-8.3-.8-8.5-.7-12.8.3-5.2 1.8-3.8 2 1.8.1 2.5 1.4 7.5 2.8 11.2 4.9 12.8 6.2 17.8 6.3 24.3 0 3.6.3 7.6.6 9 .2 1.3.7 4.2 1.1 6.5 1.4 9.6 8.4 33.6 11.7 40.1 3.4 6.7 4.1 8.7 5.3 16.9.7 4.5 4.2 15.9 16.8 53.5l8.5 25.5 27.6.3c29 .2 35.5-.4 35.5-3.6 0-.9-.5-3.5-1-5.7s-1.1-5.4-1.4-7.1c-.3-1.7-1.4-6-2.5-9.5-2.1-6.9-3.7-14.5-4.6-22.4-.6-4.6-3.1-22.7-4-28.5-.6-4-2.3-12.4-2.9-14-.2-.8-.7-3.5-1-6-.6-5.8-2.1-13-4.5-22.7-1-4.3-2.2-9.6-2.6-11.8-.3-2.2-2.4-9.2-4.5-15.5-5.8-17.3-19.3-65-19.6-69.2-.3-6-1.5-16.7-2-19.1-.3-1.2-.7-6-.9-10.7-.9-17.2-1.6-26.6-2.5-30.5-.5-2.2-2.1-9.6-3.5-16.5s-3.7-17.5-5-23.5c-1.3-6.1-3.3-16-4.4-22-3.6-19-7.6-31.7-10.7-34.2-3-2.3-14.9-6.7-54.2-19.9-27.8-9.2-34.2-11.9-38.7-16.2-1.7-1.6-5.5-4.5-8.5-6.6-5.7-4-14.2-12.2-15.8-15.3-1.1-2-.7-7.9.8-11.9.6-1.5 1.3-5.8 1.7-9.8.3-3.9.7-7.8.9-8.6.1-.8.3-1.8.3-2.2.1-.4 1.3-.8 2.9-1 4.5-.5 7-6.9 9.7-24.3 1-6.6 1.4-14 .9-16.2-.8-3-4-3-6.4-.1-1.7 2.1-1.7 1.8-1.4-10.3.3-11 0-14.4-2.1-23.7L334 0h-97.9l-1.3 4.2z"/></svg>